<?xml version="1.0" encoding="utf-8"?>
<!-- Generator: Adobe Illustrator 27.4.0, SVG Export Plug-In . SVG Version: 6.00 Build 0)  -->
<svg version="1.1" id="Layer_1" xmlns="http://www.w3.org/2000/svg" xmlns:xlink="http://www.w3.org/1999/xlink" x="0px" y="0px"
	 viewBox="0 0 1748 666" style="enable-background:new 0 0 1748 666;" xml:space="preserve">
<style type="text/css">
	.st0{fill:#253858;}
	.st1{fill:#0065FF;}
</style>
<g>
	<path class="st0" d="M820.8,418.8v-38.8l-4.1-0.6c-0.9-0.2-1.6-0.5-2.1-0.9c-0.5-0.5-0.8-1.1-0.8-1.9v-4.7h7.1v-3.5
		c0-2.7,0.4-5.1,1.2-7.3c0.8-2.2,2-4,3.5-5.5c1.5-1.5,3.4-2.7,5.6-3.5c2.2-0.8,4.6-1.2,7.4-1.2c2.2,0,4.2,0.3,6.1,0.9l-0.2,5.7
		c-0.1,0.9-0.5,1.4-1.2,1.7c-0.8,0.2-1.7,0.3-2.7,0.3c-1.4,0-2.6,0.1-3.6,0.4c-1.1,0.3-2,0.8-2.7,1.5c-0.7,0.7-1.3,1.7-1.7,2.9
		c-0.4,1.2-0.6,2.7-0.6,4.4v3.1h12.3v8.1h-12v38.8H820.8z"/>
	<path class="st0" d="M871.4,370.7c3.5,0,6.7,0.6,9.6,1.7c2.9,1.1,5.3,2.8,7.4,4.8c2,2.1,3.6,4.6,4.7,7.7c1.1,3,1.7,6.4,1.7,10.1
		c0,3.8-0.6,7.1-1.7,10.2c-1.1,3-2.7,5.6-4.7,7.7c-2,2.1-4.5,3.8-7.4,4.9c-2.9,1.1-6.1,1.7-9.6,1.7c-3.5,0-6.8-0.6-9.6-1.7
		c-2.9-1.1-5.4-2.8-7.4-4.9c-2-2.1-3.6-4.7-4.8-7.7c-1.1-3-1.7-6.4-1.7-10.2c0-3.7,0.6-7.1,1.7-10.1c1.1-3,2.7-5.6,4.8-7.7
		s4.5-3.7,7.4-4.8C864.6,371.3,867.9,370.7,871.4,370.7 M871.4,410.8c3.9,0,6.9-1.3,8.7-4c1.9-2.7,2.8-6.5,2.8-11.6
		c0-5.1-0.9-9-2.8-11.7c-1.9-2.7-4.8-4-8.7-4c-4,0-7,1.4-8.9,4c-1.9,2.7-2.9,6.6-2.9,11.7c0,5.1,1,9,2.9,11.6
		C864.4,409.4,867.4,410.8,871.4,410.8"/>
	<path class="st0" d="M903.7,418.8v-47.4h6.7c1.2,0,2,0.2,2.4,0.6c0.5,0.4,0.8,1.2,0.9,2.2l0.7,5.7c1.7-2.9,3.7-5.2,6-6.9
		c2.3-1.7,4.8-2.5,7.7-2.5c2.3,0,4.3,0.5,5.8,1.6l-1.5,8.5c-0.1,0.6-0.3,0.9-0.6,1.2c-0.3,0.2-0.7,0.3-1.3,0.3
		c-0.5,0-1.1-0.1-1.9-0.3c-0.8-0.2-1.9-0.3-3.2-0.3c-2.4,0-4.4,0.7-6.1,2c-1.7,1.3-3.1,3.2-4.3,5.7v29.5H903.7z"/>
	<path class="st1" d="M528.6,463.4c8.1,0,15.1,0.8,20.9,2.3c5.8,1.6,10.5,3.8,14.2,6.7c3.7,2.9,6.4,6.4,8.2,10.6
		c1.7,4.2,2.6,8.8,2.6,14c0,3-0.5,5.9-1.4,8.7c-0.9,2.8-2.3,5.4-4.2,7.9c-1.9,2.5-4.3,4.6-7.2,6.6c-2.9,1.9-6.3,3.6-10.3,4.9
		c18.1,3.8,27.1,13.4,27.1,28.8c0,5.4-1,10.4-3.1,14.9c-2,4.5-5,8.4-8.8,11.7c-3.9,3.3-8.6,5.8-14.3,7.7c-5.7,1.8-12.1,2.7-19.4,2.7
		h-46.7V463.4H528.6z M506.9,479.6v39.8h20.7c8.8,0,15.5-1.7,19.8-5.1c4.4-3.4,6.5-8.3,6.5-14.8c0-7-2.1-12.1-6.1-15.2
		c-4.1-3.1-10.5-4.7-19.2-4.7H506.9z M532.6,574.5c4.7,0,8.6-0.5,11.8-1.6c3.2-1.1,5.8-2.6,7.9-4.5c2-1.9,3.5-4.1,4.4-6.7
		c0.9-2.6,1.4-5.3,1.4-8.3c0-6-2.1-10.8-6.1-14.2c-4.1-3.5-10.6-5.2-19.4-5.2h-25.6v40.4H532.6z"/>
	<path class="st1" d="M690.3,500.6v90.3h-11.5c-2.5,0-4.2-1.2-4.9-3.6l-1.4-8.4c-1.9,2-3.9,3.8-6,5.5c-2.1,1.7-4.3,3.1-6.7,4.2
		c-2.4,1.2-4.9,2.1-7.6,2.7c-2.7,0.6-5.6,1-8.6,1c-5,0-9.3-0.8-13.1-2.5c-3.8-1.7-6.9-4-9.5-7c-2.6-3-4.5-6.6-5.8-10.8
		c-1.3-4.2-1.9-8.9-1.9-13.9v-57.4h19V558c0,6.1,1.4,10.8,4.2,14.2c2.8,3.4,7.1,5,12.8,5c4.2,0,8.1-1,11.7-2.9
		c3.6-1.9,7-4.6,10.2-7.9v-65.8H690.3z"/>
	<path class="st1" d="M785.1,517c-0.5,0.8-1,1.4-1.6,1.8c-0.6,0.4-1.3,0.5-2.2,0.5c-1,0-2.1-0.3-3.3-0.9c-1.2-0.6-2.6-1.3-4.2-2.1
		c-1.6-0.8-3.5-1.5-5.6-2.1c-2.2-0.6-4.7-0.9-7.6-0.9c-2.4,0-4.5,0.3-6.4,0.8c-1.9,0.6-3.5,1.4-4.9,2.4c-1.3,1-2.3,2.2-3.1,3.6
		c-0.7,1.4-1.1,2.9-1.1,4.5c0,2.1,0.7,3.9,1.9,5.3c1.3,1.4,3,2.6,5.1,3.7c2.1,1,4.5,2,7.3,2.8c2.7,0.8,5.5,1.7,8.3,2.7
		c2.8,0.9,5.6,2,8.3,3.3c2.7,1.2,5.1,2.8,7.3,4.6c2.1,1.8,3.8,4,5.1,6.5c1.3,2.6,1.9,5.7,1.9,9.3c0,4.2-0.8,8.2-2.3,11.8
		c-1.5,3.6-3.8,6.7-6.7,9.4c-3,2.7-6.6,4.7-11,6.2c-4.4,1.5-9.4,2.2-15.1,2.2c-3.1,0-6.2-0.3-9.1-0.8c-2.9-0.6-5.7-1.3-8.3-2.3
		c-2.6-1-5.1-2.1-7.3-3.5c-2.3-1.4-4.3-2.8-6.1-4.4l4.4-7.3c0.5-0.9,1.2-1.6,2-2.1c0.8-0.5,1.8-0.8,3-0.8c1.2,0,2.5,0.4,3.7,1.2
		c1.2,0.8,2.6,1.7,4.2,2.6c1.6,0.9,3.6,1.8,5.9,2.6c2.3,0.8,5.2,1.2,8.6,1.2c2.8,0,5.3-0.3,7.3-1c2.1-0.7,3.8-1.6,5.1-2.8
		c1.4-1.2,2.4-2.5,3-4c0.7-1.5,1-3.1,1-4.8c0-2.3-0.7-4.2-1.9-5.7c-1.3-1.5-3-2.7-5.2-3.8c-2.2-1.1-4.6-2-7.3-2.8
		c-2.7-0.8-5.5-1.7-8.4-2.7c-2.8-0.9-5.6-2-8.4-3.3c-2.7-1.2-5.2-2.8-7.3-4.7c-2.2-1.9-3.9-4.3-5.2-7c-1.3-2.7-2-6.1-2-10
		c0-3.6,0.7-7,2.2-10.3c1.4-3.2,3.6-6.1,6.4-8.6c2.8-2.5,6.3-4.4,10.4-5.9c4.1-1.4,8.8-2.2,14.2-2.2c6.1,0,11.6,1,16.5,2.9
		c5,1.9,9.1,4.6,12.5,8L785.1,517z"/>
	<path class="st1" d="M849.1,473.3c0,1.7-0.3,3.3-1,4.9c-0.7,1.5-1.6,2.9-2.8,4c-1.2,1.2-2.6,2.1-4.1,2.7c-1.6,0.7-3.2,1-5,1
		c-1.7,0-3.3-0.3-4.8-1c-1.5-0.7-2.8-1.6-3.9-2.7c-1.1-1.1-2-2.5-2.7-4c-0.7-1.5-1-3.2-1-4.9c0-1.8,0.3-3.4,1-5
		c0.7-1.5,1.6-2.9,2.7-4c1.1-1.2,2.4-2.1,3.9-2.7c1.5-0.7,3.1-1,4.8-1c1.8,0,3.4,0.3,5,1c1.6,0.7,2.9,1.6,4.1,2.7
		c1.2,1.2,2.1,2.5,2.8,4C848.8,469.9,849.1,471.6,849.1,473.3 M845.9,590.9h-19v-90.3h19V590.9z"/>
	<path class="st1" d="M905.4,512.5c1.9-2,4-3.8,6.1-5.4c2.1-1.6,4.3-3,6.7-4.2c2.4-1.2,4.9-2.1,7.5-2.7c2.7-0.6,5.5-1,8.7-1
		c5,0,9.3,0.8,13.1,2.5c3.7,1.7,6.9,4,9.5,7c2.6,3,4.5,6.6,5.8,10.8c1.3,4.2,2,8.9,2,13.9v57.4h-18.9v-57.4c0-6.1-1.4-10.8-4.2-14.2
		c-2.8-3.4-7.1-5-12.8-5c-4.2,0-8.2,1-11.8,2.9c-3.6,1.9-7,4.6-10.2,8v65.7h-19v-90.3h11.5c2.6,0,4.3,1.2,5,3.6L905.4,512.5z"/>
	<path class="st1" d="M1018.4,547.2c0.2,5.1,1,9.6,2.4,13.3c1.4,3.8,3.2,6.9,5.4,9.3c2.3,2.5,5,4.3,8.1,5.5
		c3.2,1.2,6.7,1.8,10.6,1.8c3.7,0,6.9-0.4,9.6-1.3c2.7-0.9,5.1-1.8,7.1-2.8c2-1,3.7-2,5.1-2.8c1.4-0.9,2.7-1.3,3.9-1.3
		c1.5,0,2.7,0.6,3.5,1.8l5.4,7c-2.2,2.7-4.8,4.9-7.6,6.7c-2.8,1.8-5.8,3.3-9,4.5c-3.2,1.2-6.5,2-9.8,2.5c-3.4,0.5-6.6,0.8-9.8,0.8
		c-6.3,0-12.1-1.1-17.4-3.1c-5.3-2.1-10-5.2-13.9-9.2c-3.9-4.1-7-9.1-9.2-15.1c-2.2-6-3.3-13-3.3-20.8c0-6.3,1-12.1,3-17.5
		c2-5.4,4.8-10.1,8.5-14.2c3.7-4,8.2-7.2,13.5-9.5c5.3-2.3,11.3-3.5,17.9-3.5c5.5,0,10.7,0.9,15.4,2.7c4.7,1.8,8.8,4.4,12.2,7.9
		c3.4,3.5,6.1,7.7,8,12.8c1.9,5,2.9,10.8,2.9,17.2c0,3-0.3,4.9-1,5.9c-0.7,1-1.8,1.5-3.5,1.5H1018.4z M1063.8,535.5
		c0-3.2-0.5-6.2-1.4-8.9c-0.9-2.7-2.3-5.1-4-7.2c-1.8-2-4-3.6-6.6-4.8c-2.6-1.2-5.6-1.7-9.1-1.7c-6.9,0-12.3,2-16.3,5.9
		c-4,4-6.5,9.5-7.5,16.6H1063.8z"/>
	<path class="st1" d="M1170.2,517c-0.5,0.8-1,1.4-1.6,1.8c-0.6,0.4-1.3,0.5-2.2,0.5c-1,0-2.1-0.3-3.3-0.9c-1.2-0.6-2.6-1.3-4.2-2.1
		c-1.6-0.8-3.5-1.5-5.6-2.1c-2.2-0.6-4.7-0.9-7.6-0.9c-2.4,0-4.5,0.3-6.4,0.8c-1.9,0.6-3.5,1.4-4.9,2.4c-1.3,1-2.3,2.2-3.1,3.6
		c-0.7,1.4-1.1,2.9-1.1,4.5c0,2.1,0.7,3.9,1.9,5.3c1.3,1.4,3,2.6,5.1,3.7c2.1,1,4.5,2,7.3,2.8c2.7,0.8,5.5,1.7,8.3,2.7
		c2.8,0.9,5.6,2,8.3,3.3c2.7,1.2,5.1,2.8,7.3,4.6c2.1,1.8,3.8,4,5.1,6.5c1.3,2.6,1.9,5.7,1.9,9.3c0,4.2-0.8,8.2-2.3,11.8
		c-1.5,3.6-3.8,6.7-6.7,9.4s-6.6,4.7-11,6.2c-4.4,1.5-9.4,2.2-15.1,2.2c-3.1,0-6.2-0.3-9.1-0.8c-2.9-0.6-5.7-1.3-8.3-2.3
		c-2.6-1-5.1-2.1-7.3-3.5c-2.3-1.4-4.3-2.8-6.1-4.4l4.4-7.3c0.5-0.9,1.2-1.6,2-2.1c0.8-0.5,1.8-0.8,3-0.8c1.2,0,2.5,0.4,3.7,1.2
		c1.2,0.8,2.6,1.7,4.2,2.6c1.6,0.9,3.6,1.8,5.9,2.6c2.3,0.8,5.2,1.2,8.6,1.2c2.8,0,5.3-0.3,7.3-1c2.1-0.7,3.8-1.6,5.1-2.8
		c1.4-1.2,2.4-2.5,3-4c0.7-1.5,1-3.1,1-4.8c0-2.3-0.7-4.2-1.9-5.7c-1.3-1.5-3-2.7-5.2-3.8c-2.2-1.1-4.6-2-7.3-2.8
		c-2.7-0.8-5.5-1.7-8.4-2.7c-2.8-0.9-5.6-2-8.4-3.3c-2.7-1.2-5.2-2.8-7.3-4.7c-2.2-1.9-3.9-4.3-5.2-7c-1.3-2.7-2-6.1-2-10
		c0-3.6,0.7-7,2.2-10.3c1.4-3.2,3.6-6.1,6.4-8.6c2.8-2.5,6.3-4.4,10.4-5.9c4.1-1.4,8.8-2.2,14.2-2.2c6.1,0,11.6,1,16.5,2.9
		c5,1.9,9.1,4.6,12.5,8L1170.2,517z"/>
	<path class="st1" d="M1265.1,517c-0.5,0.8-1,1.4-1.6,1.8c-0.6,0.4-1.3,0.5-2.2,0.5c-1,0-2.1-0.3-3.3-0.9c-1.2-0.6-2.6-1.3-4.2-2.1
		c-1.6-0.8-3.5-1.5-5.6-2.1c-2.2-0.6-4.7-0.9-7.6-0.9c-2.4,0-4.5,0.3-6.4,0.8c-1.9,0.6-3.5,1.4-4.9,2.4c-1.3,1-2.3,2.2-3.1,3.6
		c-0.7,1.4-1.1,2.9-1.1,4.5c0,2.1,0.7,3.9,1.9,5.3c1.3,1.4,3,2.6,5.1,3.7c2.1,1,4.5,2,7.3,2.8c2.7,0.8,5.5,1.7,8.3,2.7
		c2.8,0.9,5.6,2,8.3,3.3c2.7,1.2,5.1,2.8,7.3,4.6c2.1,1.8,3.8,4,5.1,6.5c1.3,2.6,1.9,5.7,1.9,9.3c0,4.2-0.8,8.2-2.3,11.8
		c-1.5,3.6-3.8,6.7-6.7,9.4c-3,2.7-6.6,4.7-11,6.2c-4.4,1.5-9.4,2.2-15.1,2.2c-3.1,0-6.2-0.3-9.1-0.8c-2.9-0.6-5.7-1.3-8.3-2.3
		c-2.6-1-5.1-2.1-7.3-3.5c-2.3-1.4-4.3-2.8-6.1-4.4l4.4-7.3c0.5-0.9,1.2-1.6,2-2.1c0.8-0.5,1.8-0.8,3-0.8c1.2,0,2.5,0.4,3.7,1.2
		c1.2,0.8,2.6,1.7,4.2,2.6c1.6,0.9,3.6,1.8,5.9,2.6c2.3,0.8,5.2,1.2,8.6,1.2c2.8,0,5.3-0.3,7.3-1c2.1-0.7,3.8-1.6,5.1-2.8
		c1.4-1.2,2.4-2.5,3-4c0.7-1.5,1-3.1,1-4.8c0-2.3-0.7-4.2-1.9-5.7c-1.3-1.5-3-2.7-5.2-3.8c-2.2-1.1-4.6-2-7.3-2.8
		c-2.7-0.8-5.5-1.7-8.4-2.7c-2.8-0.9-5.6-2-8.4-3.3c-2.7-1.2-5.2-2.8-7.3-4.7c-2.2-1.9-3.9-4.3-5.2-7c-1.3-2.7-2-6.1-2-10
		c0-3.6,0.7-7,2.2-10.3c1.4-3.2,3.6-6.1,6.4-8.6c2.8-2.5,6.3-4.4,10.4-5.9c4.1-1.4,8.8-2.2,14.2-2.2c6.1,0,11.6,1,16.5,2.9
		c5,1.9,9.1,4.6,12.5,8L1265.1,517z"/>
	<rect x="77.5" y="381" class="st0" width="700.3" height="9.6"/>
	<rect x="970.2" y="381" class="st0" width="700.3" height="9.6"/>
	<path class="st1" d="M70,139.8c4.8,0.1,9.7,0.1,14.5,0.2c11.3,0,22.6,0.1,33.9,0c2,0,2.6,0.6,2.6,2.6c-0.1,7,0,14,0,21v2.9
		c0.2,0.1,0.4,0.2,0.7,0.3c0.5-0.7,1.1-1.4,1.6-2.1c7.7-11.4,17.3-20.7,30.6-25c24.6-8,50.9,0.2,62.4,30.9c5.6,15,6.8,30.5,5.8,46.3
		c-1.1,15.4-4.3,30.4-12.2,43.8c-11.5,19.6-28.8,29-51.5,27c-12.9-1.1-24-6.9-33.3-15.8c-1.1-1-1.9-2.3-2.9-3.5
		c-0.3,0.2-0.6,0.3-0.9,0.5v68.7H95.4c-0.1-0.7-0.2-1.4-0.2-2.1c0.1-54.2,0.1-108.4,0.1-162.7c0-4.1-0.3-8.2-1-12.3
		c-1.2-6.9-4.5-10.2-11.4-11.4c-3.3-0.6-6.7-1-10.1-1.2c-1.8-0.1-2.3-0.7-2.3-2.4c0-1.7-0.3-3.3-0.5-5V139.8z M120.9,216.7
		c0,13-0.1,26,0.1,39c0,1.3,0.8,3,1.8,3.7c9.7,7.2,20.2,12.6,32.3,14.2c9.4,1.3,18-0.5,25.1-7.3c5.6-5.4,8.8-12.1,10.8-19.5
		c5.1-18.3,5.3-36.9,1.9-55.5c-1.8-9.6-4.8-18.7-10.4-26.8c-7.6-10.9-18-14.9-30.6-11.3c-12.7,3.6-22.5,11.4-30.2,22
		c-0.6,0.8-0.7,2.2-0.7,3.3C120.9,191.3,120.9,204,120.9,216.7"/>
	<path class="st0" d="M824.6,81.7v-8h50.9v92.6c3.6-4.3,6.6-8.5,10.2-12.1c15.9-16.3,35.2-21.5,57-15.4c13.9,3.9,22.8,14,29.2,26.4
		c5.4,10.4,7.7,21.7,8.5,33.3c1.1,17.3-0.3,34.4-6.8,50.6c-5.4,13.3-13.4,24.5-26.1,31.8c-20.5,11.9-47.8,8.9-65.9-6.9
		c-1.8-1.5-3.4-3.2-5.1-4.8c-0.5-0.5-1.4-0.9-2.1-0.9c-0.3,0-0.7,1.1-0.8,1.8c-0.9,4.7-1.8,9.5-2.8,14.2c-0.2,0.7-1,1.9-1.6,1.9
		c-6.6,0.1-13.2,0.1-20.2,0.1v-3.1c0-58.7,0-117.4-0.1-176.1c0-5.6-0.7-11.2-1.3-16.8c-0.3-3.3-2.4-5.4-5.6-6.1
		c-4.8-0.9-9.7-1.6-14.5-2.4C826.6,81.8,825.6,81.8,824.6,81.7 M875.5,217c0,13,0,26,0.1,39c0,1,0.4,2.4,1.2,2.9
		c9.5,6.9,19.8,12.3,31.5,14.2c19.1,3,32.8-4.4,39.4-22.8c3.4-9.4,4.5-19.1,4.8-29c0.4-13.5-0.1-26.8-3.7-39.9
		c-2.1-7.8-5.3-15.1-11.4-20.6c-8.5-7.6-18.6-8.6-29.2-6.6c-12.8,2.4-22.4,9.8-30.7,19.4c-1.4,1.7-2,3.3-2,5.5
		C875.6,191.7,875.5,204.3,875.5,217"/>
	<path class="st0" d="M1119.2,275.4c0.1,1,0.2,1.9,0.2,2.9c0.5,6.9,0.6,7.1-6.3,8.5c-4.1,0.8-8.4,1.4-12.5,1.2
		c-10.8-0.6-17-7.3-20.5-17c-0.7-1.8-1.2-3.7-1.8-5.9c-2.9,2.5-5.5,5-8.3,7.2c-9,7.3-18.8,13-30.4,15.2
		c-18.8,3.5-37.7-4.9-46.2-20.5c-9.1-16.7-6.8-43.3,16.4-56.8c9.7-5.7,20.4-8.4,31.4-9.5c9.2-1,18.5-1.1,27.8-1.6
		c1.1-0.1,2.1,0,3.5,0c-0.4-12.2,1.2-24.3-2.6-36c-3.5-10.9-11.9-16.9-23.3-16.4c-4.5,0.2-9.1,0.9-13.3,2.3
		c-9.9,3.1-14.8,10.4-15.6,20.6c-0.1,1.8-0.2,3.5-0.4,5.5h-17.9v-3.4c0-7,0-14,0.1-21c0-0.9,0.7-2.3,1.4-2.7
		c18.4-7.9,37.4-12.8,57.6-11.4c7.9,0.6,15.6,2.3,22.5,6.3c10.1,5.9,15.1,15.2,16.7,26.5c0.7,4.5,0.9,9.1,0.9,13.6
		c0.1,20.8-0.1,41.6,0.1,62.4c0.1,6.8,0.7,13.8,1.8,20.5c1.1,6.6,4.9,9.8,10.7,10.2C1113.9,276.4,1116.5,275.7,1119.2,275.4
		 M1072.5,207.1c-12.5-0.1-24.6,0.4-36,5.7c-14.1,6.6-20.6,17.4-20,33c0.6,16.6,16,29.2,32.3,26.6c8-1.3,15-5,21.8-9.2
		c1.4-0.9,1.8-1.9,1.8-3.5c-0.1-15.9,0-31.9,0-47.8C1072.5,210.5,1072.5,209,1072.5,207.1"/>
	<path class="st0" d="M1458.8,175.1h-17.6c-0.1-0.8-0.2-1.4-0.2-2.1c0-7.4-0.1-14.9,0.1-22.3c0-0.9,0.7-2.3,1.4-2.7
		c18.4-8,37.4-12.9,57.6-11.3c5.4,0.4,10.9,1.6,15.9,3.3c14,4.9,21.2,15.5,23.3,29.8c0.5,3.5,0.6,7.1,0.6,10.7
		c0.1,22.1-0.1,44.1,0.1,66.1c0.1,6.2,0.7,12.5,1.9,18.6c1.9,9.2,7.2,12.2,16.3,10.3c0.7-0.1,1.4-0.3,2.4-0.5
		c0.3,2.9,0.6,5.7,0.7,8.6c0,0.5-0.6,1.3-1.1,1.5c-7.1,2.3-14.4,3.9-21.9,2.2c-8.2-1.8-13.1-7.3-16.1-14.8c-1-2.4-1.6-4.9-2.5-7.7
		c-2.7,2.4-5.3,4.8-8,7c-9,7.4-18.9,13.5-30.6,15.3c-18.2,2.8-33.6-2.2-44.5-17.7c-11-15.6-10.5-45.5,15.6-60.1
		c9.5-5.3,19.8-7.9,30.4-9c9.4-0.9,18.9-1.1,28.4-1.6c0.8,0,1.6,0,2.2,0c0.2-0.4,0.4-0.5,0.4-0.6c-0.2-9.3,0.1-18.6-0.7-27.9
		c-0.8-9-4.2-17.2-13.1-21.5c-7.6-3.7-15.7-3.5-23.5-0.7c-13.5,4.7-16.5,11.4-17.5,24.9C1458.8,173.8,1458.8,174.3,1458.8,175.1
		 M1513.6,207.1c-11.4-0.1-22.5,0.3-33.1,4.6c-14.3,5.9-22.5,16-22.6,32.1c-0.2,17.4,15.5,31.4,32.6,28.6c7.8-1.3,14.7-4.9,21.4-9
		c1.5-0.9,2-2,2-3.7c-0.1-16.6,0-33.1,0-49.7C1513.7,209.1,1513.6,208.3,1513.6,207.1"/>
	<path class="st0" d="M1364.6,198.9c-0.5-12.2,1.4-24.3-2.6-36.1c-3.7-10.8-11.8-16.3-23.2-16.3c-6.1,0-11.8,1.3-17.3,4.1
		c-6.8,3.5-10.2,9.3-11.3,16.6c-0.4,2.5-0.6,5.1-0.8,7.8h-17.3c-0.1-0.6-0.2-1.2-0.2-1.7c0-7.6-0.1-15.2,0.1-22.9
		c0-0.9,0.8-2.2,1.6-2.5c14-6.1,28.6-10.4,44-11.3c8.4-0.5,16.8-0.2,25.1,2c16.4,4.4,26.4,16.2,27.9,33.1c0.3,4,0.5,8,0.5,12.1
		c0.1,23.1,0,46.3,0.2,69.4c0,4.1,0.7,8.2,1.6,12.2c1.9,8.7,7,11.9,15.7,10.4c0.9-0.1,1.7-0.4,3.1-0.6c0.3,3.3,0.6,6.4,0.8,9.7
		c-8.8,2.9-17.6,5.1-26.6,1.5c-9.4-3.8-12.7-12.2-15.1-21.2c-4.1,3.4-8,6.9-12.1,10c-9.4,7.1-19.7,12-31.6,12.9
		c-23.8,1.7-42.2-13.5-45.5-33c-3.3-19.7,5-37.8,25.3-47.3c9.8-4.6,20.4-6.7,31.1-7.6c8.1-0.7,16.3-0.7,24.4-1.1
		C1363,199,1363.6,199,1364.6,198.9 M1364.6,207.1c-12.1,0-23.9,0.3-35,5.3c-13.7,6.2-21.1,16.4-21,31.9
		c0.1,17.3,15.4,30.8,32.6,28.1c7.8-1.2,14.5-4.8,21.2-8.8c1.6-1,2.3-2.1,2.3-4c-0.1-16.5,0-33,0-49.5V207.1z"/>
	<path class="st1" d="M303.8,287.5c-34.2,0.3-60.3-21-67.5-55.1c-4.9-23.4-2.3-45.8,10.8-66.3c11.2-17.4,27.6-26.8,48.2-29
		c15.5-1.6,30.2,0.6,43.7,8.6c16.6,9.8,26.4,24.9,31.1,43.3c5.9,23.2,3.7,45.7-8.4,66.6c-10.6,18.2-26.8,28.6-47.7,31.4
		c-1,0.1-1.9,0.4-2.9,0.4C308.7,287.6,306.2,287.5,303.8,287.5 M346.2,209.4c-0.4-3.7-0.8-10.2-1.8-16.6c-2-12.7-6.1-24.6-14.1-34.9
		c-11.9-15.4-31.5-18.3-46.3-6.8c-7.1,5.4-11.7,12.8-15,20.9c-8.4,20.8-9.5,42.2-5.2,64c2.4,12,6.8,23.1,14.9,32.6
		c10.9,12.7,28.6,15.6,42.2,6.8c6.9-4.4,11.7-10.7,15.4-17.9C343.5,243.2,345.8,228,346.2,209.4"/>
	<path class="st0" d="M1174.1,275h95v9.8h-126.5c-0.1-4.3-0.3-8.1,2.6-12.1c29.6-40.9,58.9-81.9,88.3-122.9c0.3-0.5,0.7-1,1.3-1.9
		h-3.3c-18.2,0-36.4,0-54.6,0.1c-3.7,0-7.3,0.5-11,0.8c-2.7,0.2-4.3,1.9-4.7,4.4c-0.4,2.6-0.6,5.3-0.6,8c-0.1,3.3,0,6.6,0,10h-14.2
		v-31.4h119c0.5,4.5,0.1,8.3-2.8,12.3c-29.1,40.1-57.9,80.4-86.8,120.7C1175.3,273.4,1174.9,273.9,1174.1,275"/>
	<path class="st0" d="M1570.7,147.2v-7.4h51v26.3c13.4-20.4,30.5-32.9,56.3-28.7v39.9h-14.4c-0.5-4-0.9-8-1.6-12.1
		c-1.1-6.4-2.2-7.3-8.7-7.1c-11.9,0.2-20.5,6.3-27.7,15.3c-2.9,3.6-4.1,7.3-4,12c0.3,21.5,0,43,0.2,64.5c0,5.3,0.5,10.7,1,16
		c0.4,5,3,8.2,8.1,8.9c4.7,0.7,9.4,1.1,14.1,1.6c1.6,0.2,3.2,0.2,4.8,0.3v8.1h-79.1c0-2.3-0.2-4.7,0.1-6.9c0.1-0.6,1.4-1.3,2.3-1.4
		c4.4-0.7,8.9-1.1,13.3-1.7c4.9-0.8,7.9-3.6,8.3-8.7c0.4-5,0.9-10,1-15c0.1-25.9,0.1-51.8,0-77.7c0-5.5-0.7-11.1-1.3-16.6
		c-0.4-3.5-2.4-5.8-5.9-6.5C1582.6,149.2,1576.8,148.3,1570.7,147.2"/>
	<path class="st1" d="M371.4,81.1V74c1-0.1,1.9-0.1,2.8-0.1c14.8,0,29.6,0.1,44.3-0.1c2.6,0,3.1,0.9,3.1,3.2c0,32.3,0.1,64.7,0.2,97
		c0.1,35.5,0.2,71,0.3,106.4c0,4,0,4-3.9,4c-7.9,0-15.7,0-23.9,0c-0.1-1.1-0.2-1.9-0.2-2.8c0.1-19.5,0.2-39.1,0.4-58.6
		c0.1-14,0.4-27.9,0.6-41.9c0.3-26.1,0.6-52.3,0.8-78.5c0-3.3-0.4-6.6-1.1-9.8c-1.1-5.1-4.3-8.5-9.4-9.6
		C380.8,82.3,376.2,81.8,371.4,81.1"/>
	<path class="st1" d="M801.8,140c-2.9,5.6-5.9,10.7-8.4,16.2c-14.4,31.5-28.8,63.1-43.1,94.7c-10.4,23-20.8,46-31.3,68.9
		c-3.8,8.4-9.3,15.2-19.2,16.5c-3.8,0.5-7.7,0.6-11.5,0.6c-7.6,0-15.2-0.3-22.8-0.5c-1.6,0-3.2-0.3-4.7-0.4c-1-4.2-0.7-4.7,3.2-4.6
		c5,0.2,10,0.4,15,0.8c8.2,0.5,16-0.5,23.5-4.1c4.6-2.2,8.3-5.4,10.4-10.1c3-6.8,5.4-13.8,8.1-20.7c1.3-3.4,2.5-6.9,4.1-10.2
		c0.8-1.7,0.8-3.1,0.1-4.8c-15.1-36-30.1-72.1-45.2-108.1c-2-4.7-3.7-9.5-5.9-14.1c-3.3-6.9-8.4-11.7-16.5-12.5
		c-0.6-0.1-1-1.1-1.5-1.7c-0.1-0.1,0-0.4,0-0.5c0.1-6.7-0.8-5.4,5.3-5.4c12.3-0.1,24.6,0,36.8,0h3.3c0,3.3,0.2,6.3,0,9.3
		c-0.4,5.9,1.1,11.3,3.3,16.7c11.8,28.1,23.5,56.2,35.3,84.4c0.3,0.8,0.7,1.6,1.2,2.7c0.5-0.7,0.9-1.1,1.1-1.5
		c12-27.1,24.2-54.2,35.9-81.5c3.8-8.9,6.4-18.4,9.4-27.7c0.6-1.9,1.5-2.5,3.4-2.4C794.4,140.1,798,140,801.8,140"/>
	<path class="st1" d="M641.1,269.1c0,3.2,0.1,6.1-0.1,8.9c0,0.8-0.7,1.9-1.4,2.1c-20,7.5-40.4,10.7-61.2,4.4
		c-21.5-6.5-35.7-21.1-43.3-41.9c-9.6-26.5-8.2-52.5,7-76.7c11-17.5,27.6-26.5,48-28.7c16.8-1.8,32.9,1.8,49.1,5.4
		c1.4,0.3,1.8,1.1,1.8,2.5c0,9.9,0,19.9,0,29.8c0,1.8-0.6,2.4-2.4,2.3c-3.6-0.1-7.2-0.1-10.8,0c-2.1,0.1-2.7-0.6-2.9-2.7
		c-0.3-3.9-0.8-7.9-1.8-11.6c-3.8-14-13.1-18.9-27.1-18.1c-15.5,0.9-25.5,9.7-32.1,23c-4.6,9.2-6.7,19.2-7.6,29.4
		c-1.3,15.1,0.3,29.8,5,44.2c5.9,18,17.7,29.7,36.8,33.3c13.6,2.5,26.7,0.5,39.5-4.3C638.8,270,639.8,269.6,641.1,269.1"/>
	<path class="st1" d="M457.4,147.5v-7.3h50.1c0.4,48,0.8,95.9,1.3,144.1h-27.7c0-2.1,0-4.3,0-6.5c0.2-20.5,0.4-41,0.6-61.5
		c0.1-15.4,0.3-30.8,0.4-46.2c0-3.2-0.3-6.4-0.9-9.6c-1.3-7-4.7-10.2-11.7-11.5c-1.9-0.4-3.9-0.6-5.8-0.9
		C461.7,147.8,459.7,147.7,457.4,147.5"/>
	<rect x="482.3" y="87.4" class="st1" width="25.2" height="25.1"/>
</g>
</svg>
